<?xml version="1.0" encoding="UTF-8"?>
<svg version="1.1" xmlns="http://www.w3.org/2000/svg" width="512" height="512">
<path d="M0 0 C13.18607433 10.15816096 21.28179129 23.54965248 24 40 C25.6268779 57.94219449 23.0339706 75.91279878 12.03515625 90.62890625 C4.94404475 98.43309042 -5.92080138 104.59368838 -16.5390625 105.203125 C-25.83547129 105.3817708 -34.93046985 105.50720868 -42.5625 99.4375 C-45.46058956 96.53941044 -45.98106784 95.94660787 -46.0625 91.875 C-46.041875 90.92625 -46.02125 89.9775 -46 89 C-44.94941406 88.63648437 -43.89882812 88.27296875 -42.81640625 87.8984375 C-35.62486167 85.34593597 -28.97746757 82.89523587 -22.796875 78.296875 C-21 77 -21 77 -18.890625 76.078125 C-16.49526177 74.71217407 -16.08948168 73.49805842 -15 71 C-14.0367026 69.57249521 -13.05651362 68.15628899 -12.0625 66.75 C-5.15507093 56.5236355 -3.47834872 45.32333794 -5.4609375 33.17578125 C-8.03723519 23.52224228 -13.83574282 15.70460801 -22 10 C-32.68963791 4.20611059 -45.61858712 2.98995965 -57.4375 6.0625 C-66.65513283 9.43863468 -73.57717463 15.25140185 -78 24 C-84.04966693 37.98620746 -84.90455766 52.46736773 -80 67 C-71.84898592 87.00102144 -58.66706854 102.36545217 -41.890625 115.68359375 C-38.46786111 118.42643022 -35.13717857 121.26469158 -31.8125 124.125 C-30.91011597 124.90109619 -30.91011597 124.90109619 -29.98950195 125.69287109 C-25.63990061 129.43964666 -21.30037336 133.19675579 -17 137 C-16.29214355 137.62374512 -15.58428711 138.24749023 -14.85498047 138.89013672 C-8.6677691 144.39456841 -2.71180166 150.10192843 3.14160156 155.95629883 C4.62547915 157.43797844 6.11721716 158.91143088 7.609375 160.38476562 C30.20915551 182.85154024 40.26173702 208.29774633 40.5 240.125 C40.41685777 251.20147574 39.36724239 261.44213193 36 272 C35.78569336 272.68449219 35.57138672 273.36898438 35.35058594 274.07421875 C27.03504584 299.88023256 10.76957545 319.28934434 -13.20092773 331.87255859 C-40.04208562 345.14227738 -70.585277 346.42104574 -98.875 337.4375 C-119.65067829 330.39447483 -138.67985849 319.09866972 -149.25 299.25 C-159.44609069 277.71874583 -160.26003093 250.6550928 -152.74609375 228.11328125 C-146.19669879 209.83424383 -134.43014508 196.12996683 -117.01953125 187.52734375 C-101.7249967 180.74076503 -84.98697919 179.87048796 -69 185 C-53.66664254 191.16141658 -40.67438298 200.05274499 -33.1875 215.25 C-26.31829635 231.79642635 -25.54573407 250.49655982 -32.2890625 267.19140625 C-37.76639031 278.8929702 -43.96729821 285.09527388 -56 290 C-63.4469218 292.42834407 -72.76406195 291.89124162 -80.00390625 289.03515625 C-85.59423613 286.1360615 -89.76295207 282.12829709 -92.34375 276.34375 C-93.96727074 270.54546165 -94.21891539 263.73986745 -91.5 258.25 C-91.005 257.5075 -90.51 256.765 -90 256 C-86.38194267 255.54774283 -84.32701882 256.25225331 -81.25 258 C-75.47014287 261.05289446 -69.98540696 260.81876688 -63.8125 258.9375 C-58.5886717 256.73744457 -55.29504589 252.67464804 -52.86328125 247.65234375 C-50.08460075 239.11513081 -51.79458327 230.71195473 -55.515625 222.7890625 C-61.18589698 212.13491988 -68.0448699 204.22580396 -79.8203125 200.41015625 C-89.93510969 198.5068342 -99.27136501 199.85486706 -108.1875 204.75 C-120.47880254 214.58304203 -125.42770503 230.99943903 -127.6875 246.125 C-129.33140981 266.50948162 -123.95051037 288.37142909 -111.3125 304.75 C-100.37141075 316.66236088 -83.89887759 320.94598202 -68.35693359 321.87426758 C-47.88038227 322.7150235 -27.39041101 316.86156223 -12 303 C-5.4419335 295.07432358 -1.04469202 286.83853422 2 277 C2.31839844 276.0203125 2.63679687 275.040625 2.96484375 274.03125 C8.83736494 253.03089774 4.50460524 232.43925762 -5.953125 213.79248047 C-14.24791818 199.58996846 -27.06556931 186.64797211 -39.50341797 175.98999023 C-44.62522316 171.51502511 -49.44601951 166.75314645 -54.2734375 161.96484375 C-54.75008472 161.49227205 -55.22673195 161.01970036 -55.71782303 160.5328083 C-58.24156792 158.02976685 -60.76213181 155.5235704 -63.28027344 153.01489258 C-65.33408374 150.96991778 -67.39372503 148.93111563 -69.45898438 146.89770508 C-93.50291542 123.21625701 -111.94464828 99.53440508 -112.3125 64.1875 C-112.22736613 41.94056743 -104.92425727 22.73484994 -89.59375 6.50390625 C-66.84612258 -15.45577624 -25.99056503 -18.47471504 0 0 Z " fill="#000000" transform="translate(232,11)"/>
<path d="M0 0 C0.94359375 0.79792969 1.8871875 1.59585938 2.859375 2.41796875 C3.59671875 3.04058594 4.3340625 3.66320312 5.09375 4.3046875 C21.68968461 19.60613921 29.940234 42.64930418 30.96948242 64.78613281 C31.66222391 93.44283113 25.4630214 121.10944477 5.49609375 142.6953125 C4.62597656 143.59378906 3.75585938 144.49226562 2.859375 145.41796875 C2.14394531 146.16175781 1.42851562 146.90554687 0.69140625 147.671875 C-15.17132358 162.87985801 -37.93878538 170.826158 -59.703125 170.79296875 C-61.12189941 170.7938147 -61.12189941 170.7938147 -62.56933594 170.79467773 C-71.68529893 170.65439677 -81.86243153 169.55706548 -90.140625 165.41796875 C-90.05498291 166.48007568 -89.96934082 167.54218262 -89.88110352 168.63647461 C-89.55684121 172.66399806 -89.23500554 176.69171267 -88.91381836 180.71948242 C-88.77578479 182.44642158 -88.63713575 184.17331168 -88.49780273 185.90014648 C-88.0903263 190.95314843 -87.6947072 196.00683875 -87.31707764 201.06216431 C-87.20667674 202.53611754 -87.09425386 204.00992231 -86.9788208 205.48348999 C-85.94020374 218.94562983 -85.92059784 232.42329741 -85.90039062 245.91918945 C-85.89065314 249.84412584 -85.85951763 253.76854437 -85.828125 257.69335938 C-85.75698285 274.43009691 -86.20217371 290.71891831 -91.828125 306.66796875 C-92.08231201 307.404104 -92.33649902 308.14023926 -92.59838867 308.89868164 C-99.1320974 326.98225081 -110.9039816 342.67743192 -128.078125 351.73046875 C-130.08420036 352.65887942 -132.10472116 353.55693432 -134.140625 354.41796875 C-135.34525391 354.93037109 -135.34525391 354.93037109 -136.57421875 355.453125 C-151.30110859 360.5191751 -169.10381945 358.61808241 -183.140625 352.41796875 C-194.210034 346.93888942 -202.18000077 338.74812831 -207.16796875 327.44921875 C-209.96828976 318.72211393 -210.49730887 310.29738186 -210.453125 301.16796875 C-210.44821045 299.97228271 -210.4432959 298.77659668 -210.43823242 297.54467773 C-210.16663939 277.09998979 -203.68704943 258.81727338 -189.55859375 243.7421875 C-182.9895439 237.42783425 -175.78488719 233.23872799 -167.140625 230.41796875 C-166.26083984 230.12986328 -166.26083984 230.12986328 -165.36328125 229.8359375 C-157.13231495 228.2881108 -146.52758757 227.95533189 -139.05859375 232.1015625 C-130.70654393 237.83402847 -125.34514164 244.30727514 -123.140625 254.41796875 C-122.29577624 268.39259818 -123.08210383 279.44837077 -132.40625 290.60546875 C-136.69445595 295.08683713 -141.33384071 296.52349231 -147.390625 296.73046875 C-152.41148192 296.69721804 -157.50597286 295.05262089 -161.140625 291.41796875 C-161.43359375 289.05859375 -161.43359375 289.05859375 -161.140625 286.41796875 C-159.56640625 284.71484375 -159.56640625 284.71484375 -157.453125 283.16796875 C-151.6066364 278.36845772 -148.26377394 273.02330061 -147.140625 265.48046875 C-146.78859559 259.0333016 -148.34174913 253.2162201 -151.828125 247.79296875 C-155.31389792 245.72034701 -158.28095513 245.5398428 -162.140625 246.41796875 C-170.60694779 250.21420486 -175.18766389 256.5192913 -178.546875 264.9453125 C-179.91014175 268.72751384 -181.04978054 272.54855822 -182.140625 276.41796875 C-182.38941406 277.2996875 -182.63820313 278.18140625 -182.89453125 279.08984375 C-186.89154346 296.6431561 -185.45888192 319.62402471 -176.0546875 335.21875 C-172.19268944 340.44151919 -166.36667535 343.11369733 -160.140625 344.41796875 C-150.80616027 345.23678145 -142.14137732 342.10226903 -134.91015625 336.15234375 C-118.77977329 320.34243197 -116.20329522 292.16582899 -115.92521667 270.83520508 C-115.91766861 269.81064209 -115.91012054 268.7860791 -115.90234375 267.73046875 C-115.89282181 266.61889404 -115.88329987 265.50731934 -115.87348938 264.36206055 C-115.84886543 260.7140034 -115.83642915 257.06609833 -115.828125 253.41796875 C-115.82417725 252.15597656 -115.82022949 250.89398438 -115.81616211 249.59375 C-115.78401346 227.29656558 -116.99709807 205.20546436 -118.71533203 182.97070312 C-119.86884552 167.86431282 -120.54878509 152.91379648 -120.08007812 137.765625 C-120.04978516 136.54746094 -120.01949219 135.32929688 -119.98828125 134.07421875 C-119.94711182 133.04103516 -119.90594238 132.00785156 -119.86352539 130.94335938 C-119.92476383 128.38930607 -119.92476383 128.38930607 -121.47607422 126.65869141 C-123.89232854 124.85766405 -126.50259092 123.62553265 -129.203125 122.29296875 C-141.91060045 115.53638002 -150.55553133 106.15935556 -155.453125 92.54296875 C-163.06811782 67.08340049 -159.31491558 40.31917022 -147.26171875 16.88671875 C-143.82615656 10.93728999 -139.0287389 6.18187049 -134.140625 1.41796875 C-133.55667969 0.825 -132.97273438 0.23203125 -132.37109375 -0.37890625 C-96.74116306 -33.93418275 -36.03186965 -29.4760322 0 0 Z M-122.140625 14.41796875 C-133.17614036 28.56333829 -141.17162294 47.19387909 -139.140625 65.41796875 C-136.85705186 79.84750334 -132.16064097 92.86079332 -120.65625 102.421875 C-119.16434072 103.60104237 -119.16434072 103.60104237 -117.140625 103.41796875 C-116.86089844 102.17144531 -116.58117187 100.92492187 -116.29296875 99.640625 C-111.90778516 80.7507469 -107.22386772 63.0328148 -90.375 51.73046875 C-87.14353248 49.83226405 -84.63235901 49.29515344 -80.953125 49.35546875 C-79.695 49.37609375 -78.436875 49.39671875 -77.140625 49.41796875 C-76.34503123 51.69785586 -75.93410818 52.91294125 -76.86572266 55.19116211 C-77.45426025 56.09040405 -77.45426025 56.09040405 -78.0546875 57.0078125 C-78.48394531 57.6989917 -78.91320312 58.3901709 -79.35546875 59.10229492 C-79.82082031 59.84584229 -80.28617188 60.58938965 -80.765625 61.35546875 C-89.08506648 75.45246108 -91.48402503 91.3217511 -93.140625 107.41796875 C-83.47393981 104.60325748 -75.16721383 98.1685243 -70.140625 89.41796875 C-68.3403744 85.80310385 -66.68977301 82.1468914 -65.140625 78.41796875 C-60.92372114 79.20477052 -59.61219421 80.92368125 -57.140625 84.41796875 C-54.61366811 89.47188253 -55.54972819 96.86572169 -56.7890625 102.21875 C-60.33016796 111.94922354 -67.17898885 118.50588107 -76.140625 123.41796875 C-81.66474617 125.98968825 -87.27476788 127.78298657 -93.140625 129.41796875 C-93.248459 132.35644528 -93.32784416 135.29098026 -93.390625 138.23046875 C-93.42414063 139.06384766 -93.45765625 139.89722656 -93.4921875 140.75585938 C-93.67176242 145.39725033 -93.67176242 145.39725033 -91.625 149.3671875 C-77.34900459 155.40530506 -59.35160091 153.73882252 -45.140625 148.41796875 C-26.67954726 140.88192494 -15.12206723 127.29006635 -7.140625 109.41796875 C2.3459948 84.7752108 0.09329616 58.42963283 -10.140625 34.41796875 C-18.10291899 17.87892721 -31.68757186 4.89788635 -49.06005859 -1.26269531 C-75.89338688 -10.26767223 -102.13299099 -7.87017066 -122.140625 14.41796875 Z " fill="#000000" transform="translate(447.140625,102.58203125)"/>
<path d="M0 0 C16.62315411 10.54284241 32.26413166 20.23173245 52.70263672 16.0859375 C58.94924916 13.90442823 63.28004279 10.37598253 66.67919922 4.69921875 C68.62688798 0.10188233 70.222815 -4.52223027 71.67919922 -9.30078125 C78.1707967 -8.38761782 81.96209695 -6.57478155 85.99169922 -1.23828125 C89.03281339 4.05551009 89.31126357 8.71625349 88.67919922 14.69921875 C86.27022614 22.62511462 82.09909181 28.41652611 74.90576172 32.5625 C61.6544587 39.32763891 44.53263624 38.34343094 30.54248047 34.08203125 C16.11513854 29.16669922 3.63795495 20.44883345 -8.61767578 11.60546875 C-24.89943654 -0.12580435 -41.41684595 -9.70716675 -62.32080078 -7.30078125 C-67.78432176 -5.7337898 -71.69414391 -2.67410277 -75.32080078 1.69921875 C-77.48191437 6.22069753 -77.7097361 10.33479869 -77.97705078 15.2734375 C-78.32080078 17.69921875 -78.32080078 17.69921875 -80.32080078 19.69921875 C-85.56328251 20.20330353 -88.92144543 19.60092121 -93.32080078 16.69921875 C-99.03563644 11.55586666 -102.01822656 5.68448922 -102.48486328 -2.00390625 C-102.22727446 -9.09750599 -100.1538034 -14.10505835 -95.32080078 -19.30078125 C-65.52117878 -45.66395803 -26.41491603 -16.8066415 0 0 Z " fill="#000000" transform="translate(127.32080078125,389.30078125)"/>
<path d="M0 0 C2.5536999 1.55046065 3.04378541 3.10600677 4.1875 5.875 C6.72585901 16.48796654 4.43619318 25.99806085 1.86035156 36.3112793 C-0.49114655 46.16682286 -0.88642733 55.90235747 -1 66 C-0.48050781 65.24074219 0.03898437 64.48148437 0.57421875 63.69921875 C1.27160156 62.70535156 1.96898437 61.71148437 2.6875 60.6875 C3.37199219 59.70136719 4.05648437 58.71523438 4.76171875 57.69921875 C7.02297477 54.97229395 8.80667125 53.49298487 12 52 C14.8125 52.3125 14.8125 52.3125 17 53 C18.83076369 56.85423935 19.09813356 58.6258658 18 62.8125 C15.22154558 69.09062467 11.85733239 74.42028214 6.70703125 79.015625 C-3.25209028 87.9787014 -7.07940466 95.95467414 -10 109 C-9.67 109.33 -9.34 109.66 -9 110 C-8.54109375 109.59007812 -8.0821875 109.18015625 -7.609375 108.7578125 C-6.99578125 108.21898437 -6.3821875 107.68015625 -5.75 107.125 C-4.84507812 106.32449219 -4.84507812 106.32449219 -3.921875 105.5078125 C0.79142357 101.8099807 4.15382968 101.71248343 10 102 C11 103 11 103 11.375 106.1875 C10.91641481 110.84978277 9.30493463 112.90263687 6 116 C2.41990276 118.70756645 -1.30702809 121.16865225 -5.0625 123.625 C-7.03522542 124.92564181 -9.00537939 126.23019412 -10.97265625 127.5390625 C-11.84156494 128.10834473 -12.71047363 128.67762695 -13.60571289 129.26416016 C-17.54988297 132.1236533 -20.25692503 135.05223032 -22.578125 139.328125 C-23.23554688 140.52695312 -23.23554688 140.52695312 -23.90625 141.75 C-24.3496875 142.575 -24.793125 143.4 -25.25 144.25 C-25.70890625 145.09046875 -26.1678125 145.9309375 -26.640625 146.796875 C-27.76666925 148.86128945 -28.88619714 150.92896314 -30 153 C-28.18628906 152.26716797 -28.18628906 152.26716797 -26.3359375 151.51953125 C-23.00089303 150.27091059 -20.22016705 149.61378206 -16.625 149.6875 C-15.79226563 149.69136719 -14.95953125 149.69523438 -14.1015625 149.69921875 C-12 150 -12 150 -10 152 C-10 156.21427429 -10.47008338 158.36410006 -13.1875 161.625 C-19.40994499 166.15849564 -27.61222856 168.07632716 -34.96484375 170.109375 C-43.58761553 172.57837054 -48.86699845 175.47269102 -54 183 C-53.21496094 182.90460938 -52.42992187 182.80921875 -51.62109375 182.7109375 C-45.53136416 182.06834027 -40.70897688 181.64194433 -35 184 C-33 186 -33 186 -32.6875 188.4375 C-33 191 -33 191 -34.07421875 192.55859375 C-36.91778178 194.68694012 -39.64380136 194.99520064 -43.125 195.625 C-43.83221191 195.75994873 -44.53942383 195.89489746 -45.26806641 196.03393555 C-48.96637536 196.68780048 -52.44656069 197.06876042 -56.203125 196.91796875 C-69.76008851 196.4847426 -77.26826696 203.06564011 -87 212 C-85.78763672 212.12955078 -85.78763672 212.12955078 -84.55078125 212.26171875 C-74.73571254 213.55224045 -74.73571254 213.55224045 -71.75 216.625 C-71.1725 217.40875 -70.595 218.1925 -70 219 C-72.625 222.875 -72.625 222.875 -76 224 C-82.97098215 224.44422925 -89.75085343 224.66638219 -96.4375 222.4375 C-103.53919417 220.13482947 -110.69913577 221.23968415 -118 222 C-117.67 221.01 -117.34 220.02 -117 219 C-114.74674597 218.08723369 -112.48290011 217.54218478 -110.12890625 216.94140625 C-107.92322983 216.17649368 -107.92322983 216.17649368 -106.8046875 214.37890625 C-105.69671869 211.10340624 -105.1283982 207.7755518 -104.5625 204.375 C-101.53046112 187.43442003 -101.53046112 187.43442003 -98.0703125 184.19140625 C-97.38710938 183.79824219 -96.70390625 183.40507812 -96 183 C-93.60736593 183.66771183 -91.77902615 184.22097385 -90 186 C-90.42902836 194.29454835 -92.74846357 202.0515528 -95 210 C-94.56171875 209.67128906 -94.1234375 209.34257812 -93.671875 209.00390625 C-93.03765625 208.52824219 -92.4034375 208.05257812 -91.75 207.5625 C-91.03199219 207.01980469 -90.31398438 206.47710937 -89.57421875 205.91796875 C-87.67579057 204.50351012 -85.75880893 203.11387222 -83.83203125 201.73828125 C-83.2915918 201.34761475 -82.75115234 200.95694824 -82.19433594 200.55444336 C-80.61464556 199.41268929 -79.02813173 198.28039435 -77.44140625 197.1484375 C-74.94010474 195.25501075 -74.94010474 195.25501075 -74.125 192.98046875 C-73.99193559 190.87222947 -74.12125597 189.02627227 -74.4375 186.9375 C-75.64299189 177.08461296 -75.46843813 167.43466939 -72 158 C-70.05078125 155.62109375 -70.05078125 155.62109375 -68 154 C-64.91312287 154 -63.56753744 154.44194409 -61.36328125 156.609375 C-59.47384624 159.92265359 -59.67324283 162.45819567 -59.75 166.25 C-59.76095703 166.91588135 -59.77191406 167.5817627 -59.78320312 168.26782227 C-59.88736375 172.90919724 -60.25255738 177.42191396 -61 182 C-60.36191406 181.21753906 -59.72382813 180.43507813 -59.06640625 179.62890625 C-58.24011719 178.61699219 -57.41382813 177.60507812 -56.5625 176.5625 C-55.73878906 175.55316406 -54.91507812 174.54382813 -54.06640625 173.50390625 C-52 171 -52 171 -51 170 C-50.87692337 167.47845332 -50.81390277 164.98006561 -50.7890625 162.45703125 C-50.76097578 160.89256799 -50.73231121 159.32811501 -50.703125 157.76367188 C-50.66198208 155.2928923 -50.625105 152.82230102 -50.59863281 150.35131836 C-50.57088977 147.96948213 -50.52499923 145.58852487 -50.4765625 143.20703125 C-50.47330963 142.47555374 -50.47005676 141.74407623 -50.46670532 140.99043274 C-50.35472652 136.27884826 -49.52936826 132.98552445 -47 129 C-44 127 -44 127 -42 127.0625 C-38.9873736 128.47466862 -38.37855179 129.96330282 -37 133 C-36.64089909 136.28054409 -36.71667185 139.51748577 -36.8125 142.8125 C-36.83280273 144.13797852 -36.83280273 144.13797852 -36.85351562 145.49023438 C-36.88870783 147.66042023 -36.94251015 149.83029033 -37 152 C-28.69519857 140.68242682 -28.69519857 140.68242682 -26.0546875 127.49609375 C-26.92922076 123.48828956 -28.4262505 119.7803295 -30 116 C-32.88448838 107.00039624 -35.16108421 97.94555181 -31 89 C-30 88 -30 88 -26.625 87.6875 C-23 88 -23 88 -21.1875 89.4375 C-18.70610244 94.79209473 -17.99861761 100.47071606 -17.4453125 106.3046875 C-17.36039551 107.18882324 -17.27547852 108.07295898 -17.18798828 108.98388672 C-17.12595215 109.6492041 -17.06391602 110.31452148 -17 111 C-15.95826955 107.63109491 -14.94543589 104.25415537 -13.9375 100.875 C-13.64294922 99.92367187 -13.34839844 98.97234375 -13.04492188 97.9921875 C-10.9214408 91.043756 -10.9214408 91.043756 -12 84 C-13.37600315 81.56338591 -14.77813656 79.26654272 -16.3125 76.9375 C-20.86888068 69.68281156 -25.57598229 61.57899127 -24.6640625 52.74609375 C-23.94857529 49.78734371 -23.55180708 48.64044741 -21 47 C-18.625 46.4375 -18.625 46.4375 -16 47 C-11.15056782 51.49459568 -9.17560041 56.84997873 -7 63 C-4.71352858 50.83672169 -5.45804308 40.64736819 -9.80859375 29.20703125 C-12.43015357 22.15030793 -13.55205332 13.75178408 -11.17578125 6.4765625 C-8.31757064 0.59013619 -6.43803064 -0.52555352 0 0 Z M-6 5 C-9.7139227 15.55535925 -7.1778041 24.95383852 -3 35 C0.23967498 29.38456336 0.20268229 23.27215868 0.25 16.9375 C0.270625 16.24333984 0.29125 15.54917969 0.3125 14.83398438 C0.34642062 10.36918301 -0.25642538 7.55417622 -3 4 C-4.2236068 3.9254644 -4.2236068 3.9254644 -6 5 Z M-20 51 C-20.33 51.33 -20.66 51.66 -21 52 C-20.74196038 59.19181403 -18.12851916 64.63551887 -14.9375 71 C-14.22883789 72.44826172 -14.22883789 72.44826172 -13.50585938 73.92578125 C-12.34755628 76.28918757 -11.17883911 78.64678829 -10 81 C-9.67 81 -9.34 81 -9 81 C-9.5440861 64.51195004 -9.5440861 64.51195004 -18 51 C-18.66 51 -19.32 51 -20 51 Z M8.6875 59.26171875 C2.82104304 65.30471261 -0.04893605 72.95613987 -2 81 C2.83534384 77.39921203 6.44482286 73.40282032 9.9375 68.5 C10.3389624 67.95448486 10.7404248 67.40896973 11.15405273 66.84692383 C13.73712402 63.10284593 14.44207233 60.51593886 14 56 C11.81922975 56 10.26058032 57.91930646 8.6875 59.26171875 Z M-27 92 C-32.22014598 100.84187516 -26.34907203 114.6801933 -24 124 C-19.56452478 116.61966008 -20.49413976 106.18371505 -22.33203125 98.0859375 C-23.02542575 95.9206003 -23.92686535 94.00137349 -25 92 C-25.66 92 -26.32 92 -27 92 Z M-7.546875 113.4296875 C-10.49239438 116.61274876 -12.73649775 120.31578889 -15 124 C-6.50010107 120.98737759 1.07865121 114.72153106 7 108 C7 107.34 7 106.68 7 106 C1.86328674 106 -3.83646418 110.18817475 -7.546875 113.4296875 Z M-44 132 C-46.20015961 135.58643904 -46.38939362 138.77948367 -46.625 142.9375 C-46.66294678 143.59049072 -46.70089355 144.24348145 -46.73999023 144.91625977 C-47.07876695 151.27619726 -47.09663841 157.6326025 -47 164 C-41.76587463 158.76587463 -40.47891442 148.43823608 -39.94921875 141.234375 C-40.02580002 137.86479923 -40.83479513 135.1529073 -42 132 C-42.66 132 -43.32 132 -44 132 Z M-39 153 C-38 155 -38 155 -38 155 Z M-38 165 C-33.44824231 166.51725256 -30.28058215 164.55926016 -25.9375 162.875 C-25.10927734 162.57851563 -24.28105469 162.28203125 -23.42773438 161.9765625 C-18.56303323 160.20204894 -18.56303323 160.20204894 -15.44140625 156.2578125 C-15.29574219 155.51273438 -15.15007812 154.76765625 -15 154 C-24.29124552 152.78809841 -31.40031254 159.09501649 -38 165 Z M-66 158 C-68.44364715 159.80617398 -68.97766071 160.89065506 -69.59375 163.90625 C-70.23453571 169.06527654 -70.10639135 174.2481918 -70.0625 179.4375 C-70.05798828 180.45521484 -70.05347656 181.47292969 -70.04882812 182.52148438 C-70.03712437 185.01438509 -70.02072848 187.50716074 -70 190 C-63.2449973 183.57760403 -62.94669644 173.18895557 -62.671875 164.3671875 C-63.06861929 161.50496083 -64.11959717 160.14761797 -66 158 Z M-61 191 C-61.33 191.66 -61.66 192.32 -62 193 C-59.14447056 192.91237 -56.29181011 192.80540993 -53.4375 192.6875 C-52.63763672 192.66494141 -51.83777344 192.64238281 -51.01367188 192.61914062 C-45.66686073 192.37907972 -41.79199159 191.3992119 -37 189 C-39.61576463 186.38423537 -40.85399883 186.67198455 -44.5 186.625 C-50.56488872 186.71279091 -55.71941839 187.96670993 -61 191 Z M-96 188 C-101.36287821 199.64018367 -101.36287821 199.64018367 -101 212 C-95.47731031 204.76337214 -93.49809136 197.03435543 -94 188 C-94.66 188 -95.32 188 -96 188 Z M-95 217 C-92.12563833 219.87436167 -89.99972292 219.96762555 -85.984375 220.09765625 C-84.38335937 220.08025391 -84.38335937 220.08025391 -82.75 220.0625 C-81.13351562 220.04896484 -81.13351562 220.04896484 -79.484375 220.03515625 C-78.25460937 220.01775391 -78.25460937 220.01775391 -77 220 C-77 219.34 -77 218.68 -77 218 C-80.61867559 216.7937748 -83.92506251 216.89183082 -87.6875 216.9375 C-88.38939453 216.94201172 -89.09128906 216.94652344 -89.81445312 216.95117188 C-91.54300538 216.96293073 -93.27151365 216.98086546 -95 217 Z " fill="#000000" transform="translate(447,288)"/>
<path d="M0 0 C3.8034844 3.19078922 7.27451982 6.914253 9.625 11.3125 C9.625 12.6325 9.625 13.9525 9.625 15.3125 C6.54086375 13.98041562 4.95648118 12.70666569 3 10 C-1.30132509 4.74404409 -7.7328493 1.58934062 -14.375 0.3125 C-24.18074598 -0.65694976 -32.9394745 1.23890284 -40.75 7.4375 C-48.19531615 14.56242345 -51.34148973 24.484951 -51.6875 34.5625 C-51.28917059 50.65058215 -43.7820157 64.45141025 -33.375 76.3125 C-32.82199219 76.99699219 -32.26898438 77.68148437 -31.69921875 78.38671875 C-27.74058131 83.19566017 -23.26887405 87.01876276 -18.40234375 90.890625 C-15.15096023 93.49173182 -11.97902863 96.1720586 -8.8125 98.875 C-5.04469896 102.08054953 -1.25250569 105.23940392 2.625 108.3125 C33.60043105 132.90176263 66.37466017 161.94096048 72.15625 203.3671875 C75.71871389 235.63177522 69.97529118 270.87331844 49.4375 296.9375 C48.17438148 298.4025205 46.90444964 299.86172017 45.625 301.3125 C45.18285156 301.89644531 44.74070313 302.48039062 44.28515625 303.08203125 C29.74097064 321.95852747 3.40845485 332.77976334 -19.58984375 335.84375 C-43.69162711 338.49108547 -70.58800451 336.45264363 -91.71484375 323.7421875 C-92.26269531 323.27039063 -92.81054688 322.79859375 -93.375 322.3125 C-93.375 321.3225 -93.375 320.3325 -93.375 319.3125 C-89.23718869 319.94849692 -85.90685125 321.35505777 -82.125 323.125 C-57.05732764 334.24838318 -26.24895547 335.57674904 -0.55078125 326.15771484 C25.83802857 315.90658607 44.94708674 299.31950444 57.21875 273.6171875 C68.7353839 246.55309785 73.28834227 213.34725794 62.5 185.3125 C54.31450003 167.30440007 43.19645485 152.55726734 29.625 138.3125 C28.70267578 137.32830078 28.70267578 137.32830078 27.76171875 136.32421875 C23.68699118 132.09389299 19.20857464 128.43775108 14.63671875 124.7578125 C11.48520162 122.19899314 8.39709857 119.57598087 5.3125 116.9375 C0.82070142 113.10289075 -3.76390548 109.42262646 -8.4375 105.8125 C-16.9609456 99.20789569 -24.75671802 91.94320985 -32.375 84.3125 C-33.00921875 83.7246875 -33.6434375 83.136875 -34.296875 82.53125 C-46.4269714 71.12688587 -56.37462106 55.21251875 -57.375 38.3125 C-57.48280322 24.60609006 -54.33945184 13.56413159 -44.75 3.62890625 C-32.89752008 -7.37304849 -13.52409033 -9.49013605 0 0 Z " fill="#000000" transform="translate(209.375,25.6875)"/>
<path d="M0 0 C4.95963055 1.3043902 8.25711233 3.47173666 11.9375 6.9375 C12.46110107 7.42839111 12.98470215 7.91928223 13.52416992 8.42504883 C31.02204496 25.37586137 37.85131821 53.24915709 38.25 76.9375 C37.92463798 107.66613507 25.7421998 137.40753987 4 159 C-14.01292664 176.22384073 -39.53683263 183.74560021 -64.10546875 183.3046875 C-70.22490923 182.82593488 -76.06168084 181.55880878 -82 180 C-81.80664062 181.15113281 -81.61328125 182.30226563 -81.4140625 183.48828125 C-81.15075987 185.09630805 -80.88775583 186.70438376 -80.625 188.3125 C-80.49867188 189.05951172 -80.37234375 189.80652344 -80.2421875 190.57617188 C-77.43588777 207.9050727 -76.62727642 225.02374339 -76.6875 242.5625 C-76.68932281 243.66362122 -76.69114563 244.76474243 -76.69302368 245.89923096 C-76.7381281 262.08010989 -76.97856132 278.05120505 -80 294 C-80.24943359 295.33683838 -80.24943359 295.33683838 -80.50390625 296.70068359 C-85.32394512 321.25164085 -96.90534113 342.39424694 -117.85693359 356.77050781 C-127.99232567 363.44952375 -138.85367686 368.03927388 -151 369 C-151.65355469 369.05414063 -152.30710937 369.10828125 -152.98046875 369.1640625 C-166.17942337 369.70885988 -182.53693109 365.64724884 -192.875 357.125 C-193.57625 356.42375 -194.2775 355.7225 -195 355 C-194.34 354.34 -193.68 353.68 -193 353 C-191.58460938 353.70576172 -191.58460938 353.70576172 -190.140625 354.42578125 C-173.9755922 362.33984568 -156.85742573 366.45310987 -139.0625 361.1640625 C-127.84370566 356.89977587 -118.38163763 351.74925332 -110 343 C-109.24460937 342.26394531 -108.48921875 341.52789062 -107.7109375 340.76953125 C-83.53646884 315.97200928 -80.65672203 276.63157659 -80.92431641 243.8215332 C-81.07107571 238.35025169 -81.42851125 232.89657711 -81.8125 227.4375 C-81.89870605 226.18477295 -81.98491211 224.9320459 -82.07373047 223.64135742 C-82.77744753 213.94116044 -83.78496603 204.2968409 -85.03442383 194.65209961 C-85.82445911 188.3932928 -86.17206316 182.30811362 -86 176 C-81.99627022 174.81680983 -79.447762 175.43927402 -75.375 176.4375 C-52.23746503 181.49187137 -29.36908172 175.78340233 -9.625 163.125 C-4.00668242 159.17616892 1.10395699 154.81044785 6 150 C6.92039062 149.09894531 6.92039062 149.09894531 7.859375 148.1796875 C21.28566926 133.95274266 27.79851212 114.93511583 31 96 C31.2165625 94.74832031 31.433125 93.49664062 31.65625 92.20703125 C35.54637547 67.53988996 30.58192846 40.16035402 16.375 19.375 C15.26596765 17.90448704 14.14280794 16.44442069 13 15 C12.58105469 14.43023437 12.16210938 13.86046875 11.73046875 13.2734375 C8.85118775 9.51785358 5.46218001 7.0032742 1.57421875 4.39453125 C1.05472656 3.93433594 0.53523437 3.47414063 0 3 C0 2.01 0 1.02 0 0 Z " fill="#000000" transform="translate(449,100)"/>
<path d="M0 0 C6.30608188 4.53902867 12.5116568 9.21515496 18.70507812 13.90625 C37.21120431 27.86709959 57.13467244 37.37824902 80.75048828 35.42578125 C84.75694098 34.59800177 88.13468372 33.32230619 91.75048828 31.42578125 C92.56001953 31.00167969 93.36955078 30.57757813 94.20361328 30.140625 C103.02984715 24.89456878 107.0274649 16.68953942 110.75048828 7.42578125 C111.74048828 7.42578125 112.73048828 7.42578125 113.75048828 7.42578125 C112.1477512 17.7170404 109.2729906 25.92737323 100.75048828 32.42578125 C85.95919748 41.16791644 71.41698086 43.11129527 54.81640625 38.98974609 C36.21799815 33.91265761 21.29807715 23.3248275 6.05908203 11.91796875 C-15.24029073 -4.77940684 -15.24029073 -4.77940684 -41.24951172 -8.57421875 C-45.10238149 -7.19300128 -47.03928992 -5.78444055 -49.93701172 -2.88671875 C-51.08169922 -1.74203125 -51.08169922 -1.74203125 -52.24951172 -0.57421875 C-53.23951172 -0.57421875 -54.22951172 -0.57421875 -55.24951172 -0.57421875 C-53.96538189 -5.59399899 -52.33760148 -8.35593532 -48.24951172 -11.57421875 C-32.20243487 -19.93677993 -13.26603831 -9.28363523 0 0 Z " fill="#000000" transform="translate(110.24951171875,399.57421875)"/>
<path d="M0 0 C2.42474751 1.88947306 4.05922837 3.57403546 6 6 C6 6.99 6 7.98 6 9 C2.83969789 7.82125829 -0.17224037 6.44435814 -3.1875 4.94140625 C-18.28226749 -2.55809498 -32.69565803 -8.11283692 -49.625 -3.375 C-55.62834318 -1.33558677 -60.82115613 1.35733185 -66 5 C-66.91845703 5.64195313 -66.91845703 5.64195313 -67.85546875 6.296875 C-79.72900748 15.53486852 -87.70386507 30.28707389 -90 45 C-90.87762845 54.68602126 -89.60131636 63.19404915 -86.97265625 72.44140625 C-86.10176517 75.62767845 -85.47793238 78.73496719 -85 82 C-89.91307471 79.13403975 -91.5067321 75.57856068 -93.2109375 70.3828125 C-97.43272014 52.28348693 -94.5214953 33.39741662 -84.95703125 17.48046875 C-76.25244877 3.84747003 -63.99541856 -5.97208177 -48.06689453 -9.63598633 C-31.7230803 -12.51439727 -13.96536976 -8.80992952 0 0 Z " fill="#000000" transform="translate(409,111)"/>
<path d="M0 0 C3.78643469 2.21444917 5.91272417 3.70372324 7.6640625 7.828125 C6.6740625 8.158125 5.6840625 8.488125 4.6640625 8.828125 C2.4296875 7.68359375 2.4296875 7.68359375 -0.0859375 6.015625 C-6.97136987 1.70848225 -13.37270363 -0.43455263 -21.53125 1.29296875 C-29.00783003 3.4345654 -33.36301996 6.56722733 -37.40625 13.25 C-46.77080931 30.47467666 -50.56561391 49.29782435 -45.53515625 68.51171875 C-43.50880732 74.11553061 -40.78329671 79.34041316 -37.98046875 84.58984375 C-36.3359375 87.828125 -36.3359375 87.828125 -36.3359375 89.828125 C-39.43206047 89.52427537 -40.90887951 89.31647837 -42.99609375 86.9296875 C-53.53757424 68.31325678 -55.50425209 49.40558047 -50.3359375 28.828125 C-47.08019841 18.03529029 -42.1182024 6.15782582 -32.3359375 -0.171875 C-21.432401 -5.89860199 -10.96483898 -5.50075534 0 0 Z " fill="#000000" transform="translate(160.3359375,218.171875)"/>
<path d="M0 0 C0.66 0 1.32 0 2 0 C9.64612263 14.01789149 9.93958082 29.69706542 5.63818359 45.05126953 C1.31796342 58.24331138 -6.05231759 70.01717323 -18.453125 76.78125 C-29.01398638 81.83491373 -41.20439395 82.90599283 -52.5625 79.75 C-54.05738957 79.20822794 -55.53908741 78.62765134 -57 78 C-57.65484375 77.7215625 -58.3096875 77.443125 -58.984375 77.15625 C-63.68158327 74.8277194 -66.63910228 71.59337841 -69 67 C-69.8125 63.5625 -69.8125 63.5625 -70 61 C-68.515 60.505 -68.515 60.505 -67 60 C-66.62488281 60.53109375 -66.24976563 61.0621875 -65.86328125 61.609375 C-60.56632347 68.92104468 -55.21623375 73.99685117 -46.046875 75.4765625 C-33.94054868 76.71014551 -24.10348237 75.04086428 -14 68 C-5.01047788 60.45020603 1.44212497 46.50323797 3 35 C3.95886198 23.0168887 3.19218509 12.30392766 -1 1 C-0.67 0.67 -0.34 0.34 0 0 Z " fill="#000000" transform="translate(205,230)"/>
<path d="M0 0 C1.8046875 0.16796875 1.8046875 0.16796875 4 1 C12.99403054 13.67340667 13.2343167 29.71555899 11.25 44.5625 C8.56794488 60.04019311 2.57179107 74.09086709 -10 84 C-22.27906263 91.83649352 -33.63561875 93.68706162 -48 93 C-48.99 92.67 -49.98 92.34 -51 92 C-51 91.01 -51 90.02 -51 89 C-50.29617187 89.03480469 -49.59234375 89.06960937 -48.8671875 89.10546875 C-33.87750346 89.51641309 -19.49850648 86.04228116 -8 76 C3.330853 63.37209471 7.50367538 45.33056501 7.25390625 28.8125 C6.66851004 20.02255078 4.28381075 11.96782161 0.76953125 3.92578125 C0 2 0 2 0 0 Z " fill="#000000" transform="translate(255,33)"/>
<path d="M0 0 C2.5 2.5625 2.5 2.5625 4 5 C0.25 6.125 0.25 6.125 -2 5 C-5.28473894 4.49465555 -7.79181252 4.14784844 -10.6171875 6.140625 C-20.93598342 17.15446935 -22.39302805 32.99221524 -22.375 47.3125 C-22.37483887 48.50568848 -22.37467773 49.69887695 -22.37451172 50.92822266 C-22.26552059 59.31136142 -21.46351449 66.28925605 -18 74 C-16.47230602 77.46628495 -16 79.09364936 -16 83 C-19.35580076 81.63385981 -20.63714976 80.51331724 -22.0625 77.1875 C-26.1992682 66.66934947 -27.53423258 56.30979077 -27.4375 45.0625 C-27.43065186 43.8348291 -27.42380371 42.6071582 -27.41674805 41.34228516 C-27.26186788 32.61214818 -26.51306191 25.08345313 -23 17 C-22.59136719 16.05253906 -22.18273437 15.10507812 -21.76171875 14.12890625 C-19.12338286 8.5010009 -16.4776905 3.68933443 -11.25 0.125 C-7.19826221 -1.27752462 -4.06280927 -1.46088248 0 0 Z " fill="#000000" transform="translate(293,352)"/>
<path d="M0 0 C0.66 0 1.32 0 2 0 C4.66971994 5.33943988 3.58167019 13.40076521 2.31640625 19.0546875 C-1.82853301 31.19712368 -8.63043529 39.40348204 -20 45.1875 C-24.28769597 47.23977659 -28.60052123 49.20021323 -33 51 C-33.33 54.96 -33.66 58.92 -34 63 C-34.99 62.67 -35.98 62.34 -37 62 C-38.00530065 58.98409804 -38.26446856 56.66289965 -38.375 53.5 C-38.42398437 52.5409375 -38.47296875 51.581875 -38.5234375 50.59375 C-38 48 -38 48 -35.83984375 46.26953125 C-32.98195393 44.99193264 -30.19517346 44.05077718 -27.1875 43.1875 C-17.5316644 40.05172005 -9.61086567 33.64180443 -4.7109375 24.62890625 C-1.94970365 18.58001627 -0.86918792 13.41032798 -0.4375 6.75 C-0.35371094 5.48671875 -0.26992188 4.2234375 -0.18359375 2.921875 C-0.09271484 1.47554687 -0.09271484 1.47554687 0 0 Z " fill="#000000" transform="translate(396,188)"/>
<path d="M0 0 C0.33 0 0.66 0 1 0 C1.63472181 6.98193994 0.21919132 11.38093778 -4 17 C-9.54917692 22.95369636 -14.99802477 27.53728801 -23.3359375 28.30859375 C-33.87555404 28.67317168 -33.87555404 28.67317168 -37.6875 26.25 C-39.74430283 24.24878643 -41.52370689 22.46048852 -43 20 C-43 19.34 -43 18.68 -43 18 C-40.16509016 19.11678266 -37.39166961 20.28163444 -34.625 21.5625 C-28.27864326 24.07915871 -23.55186666 24.55630073 -17.19140625 22.11328125 C-8.46430119 17.6797252 -4.41296457 8.2642791 0 0 Z " fill="#000000" transform="translate(326,379)"/>
<path d="M0 0 C-0.47972933 6.18685412 -2.5847295 10.75856286 -5.375 16.25 C-8.70983179 23.05402214 -11.55693607 29.51701526 -13 37 C-13.20109375 38.02480469 -13.4021875 39.04960937 -13.609375 40.10546875 C-14.10227016 42.73313281 -14.56629044 45.36202541 -15 48 C-15.66 48 -16.32 48 -17 48 C-18.03437914 32.00160267 -14.02999001 13.74257433 -3.4140625 1.11328125 C-2 0 -2 0 0 0 Z " fill="#000000" transform="translate(377,155)"/>
<path d="M0 0 C0.99 0 1.98 0 3 0 C3.53625 1.0725 4.0725 2.145 4.625 3.25 C7.086041 7.5611853 10.25012004 9.90004802 14.875 11.75 C21.10876545 12.52037167 21.10876545 12.52037167 27 11 C27.40729228 8.67843403 27.74438677 6.3431213 28 4 C30.4832167 5.86241253 30.96917166 6.81888351 31.5 9.9375 C31 13 31 13 29.25 15.375 C23.68915517 18.15542242 17.56187567 18.039367 11.6171875 16.3046875 C6.84824364 14.1468764 3.83421461 11.38014985 1 7 C0.1875 3.125 0.1875 3.125 0 0 Z " fill="#000000" transform="translate(26,403)"/>
</svg>
